<svg width="512" height="369" viewBox="0 0 512 369" fill="none" xmlns="http://www.w3.org/2000/svg">
<path d="M409.176 25.984H100.967C96.7596 25.984 93.3506 29.393 93.3506 33.6V335.011C93.3506 339.218 96.7596 342.627 100.967 342.627H409.176C413.383 342.627 416.792 339.218 416.792 335.011V33.6C416.792 29.393 413.383 25.984 409.176 25.984ZM401.56 327.394H108.583V41.216H401.56V327.394Z" fill="#7a7a7a"/>
<path d="M344.68 165.19C343.76 162.353 341.267 160.315 338.303 159.976L284.483 153.824L262 104.539C260.254 100.712 255.737 99.0221 251.91 100.771C248.083 102.517 246.395 107.033 248.142 110.861L272.41 164.063C273.519 166.494 275.819 168.166 278.475 168.469L319.985 173.213L289.191 201.452C287.223 203.257 286.343 205.962 286.876 208.581L295.191 249.524L258.82 228.965C256.496 227.65 253.649 227.65 251.325 228.965L214.954 249.526L223.269 208.583C223.801 205.965 222.922 203.26 220.954 201.454L190.16 173.215L231.67 168.471C235.849 167.994 238.85 164.218 238.372 160.039C237.895 155.859 234.106 152.854 229.94 153.337L171.842 159.977C168.878 160.315 166.385 162.353 165.464 165.191C164.542 168.027 165.36 171.141 167.559 173.157L207.485 209.769L196.705 262.856C196.111 265.779 197.278 268.779 199.692 270.533C202.104 272.287 205.318 272.47 207.916 271.002L255.073 244.343L302.23 271.002C303.397 271.661 304.688 271.988 305.976 271.988C307.554 271.988 309.126 271.498 310.453 270.533C312.867 268.779 314.034 265.778 313.44 262.856L302.66 209.769L342.586 173.157C344.784 171.141 345.604 168.027 344.68 165.19Z" fill="#7a7a7a"/>
<path d="M476.045 256.855H435.746C431.539 256.855 428.13 260.264 428.13 264.471V300.344C428.13 304.551 431.539 307.96 435.746 307.96H476.045C480.252 307.96 483.661 304.551 483.661 300.344V264.471C483.661 260.264 480.252 256.855 476.045 256.855ZM468.429 292.728H443.363V272.087H468.429V292.728Z" fill="#7a7a7a"/>
<path d="M504.384 0H476.044C471.837 0 468.428 3.409 468.428 7.616V35.87H443.362V7.616C443.362 3.409 439.953 0 435.746 0H172.706C168.499 0 165.09 3.409 165.09 7.616C165.09 11.823 168.499 15.232 172.706 15.232H428.13V43.486C428.13 47.693 431.539 51.102 435.746 51.102H476.045C480.252 51.102 483.661 47.693 483.661 43.486V15.233H496.769V353.378H483.66V328.686C483.66 324.479 480.251 321.07 476.044 321.07H435.745C431.538 321.07 428.129 324.479 428.129 328.686V353.378H82.014V328.686C82.014 324.479 78.605 321.07 74.398 321.07H35.956C31.749 321.07 28.34 324.479 28.34 328.686V353.378H15.232V15.233H28.34V43.487C28.34 47.694 31.749 51.103 35.956 51.103H74.396C78.603 51.103 82.012 47.694 82.012 43.487V15.233H111.874C116.081 15.233 119.49 11.824 119.49 7.617C119.49 3.41 116.081 0.000999451 111.874 0.000999451H74.398C70.191 0.000999451 66.782 3.41 66.782 7.617V35.871H43.573V7.616C43.573 3.409 40.164 0 35.957 0H7.616C3.409 0 0 3.409 0 7.616V360.993C0 365.2 3.409 368.609 7.616 368.609H35.956C40.163 368.609 43.572 365.2 43.572 360.993V336.301H66.78V360.993C66.78 365.2 70.189 368.609 74.396 368.609H435.745C439.952 368.609 443.361 365.2 443.361 360.993V336.301H468.427V360.993C468.427 365.2 471.836 368.609 476.043 368.609H504.383C508.59 368.609 511.999 365.2 511.999 360.993V7.616C512 3.409 508.591 0 504.384 0Z" fill="#7a7a7a"/>
<path d="M74.3978 192.641H35.9558C31.7488 192.641 28.3398 196.05 28.3398 200.257V236.13C28.3398 240.337 31.7488 243.746 35.9558 243.746H74.3958C78.6028 243.746 82.0118 240.337 82.0118 236.13V200.257H82.0128C82.0138 196.05 78.6048 192.641 74.3978 192.641ZM66.7798 228.514H43.5728V207.873H66.7798V228.514Z" fill="#7a7a7a"/>
<path d="M74.3978 128.426H35.9558C31.7488 128.426 28.3398 131.835 28.3398 136.042V171.916C28.3398 176.123 31.7488 179.532 35.9558 179.532H74.3958C78.6028 179.532 82.0118 176.123 82.0118 171.916V136.042H82.0128C82.0138 131.835 78.6048 128.426 74.3978 128.426ZM66.7798 164.3H43.5728V143.658H66.7798V164.3Z" fill="#7a7a7a"/>
<path d="M476.045 64.213H435.746C431.539 64.213 428.13 67.622 428.13 71.829V107.702C428.13 111.908 431.539 115.318 435.746 115.318H476.045C480.252 115.318 483.661 111.909 483.661 107.702V71.829C483.661 67.622 480.252 64.213 476.045 64.213ZM468.429 100.085H443.363V79.444H468.429V100.085Z" fill="#7a7a7a"/>
<path d="M74.3978 64.212H35.9558C31.7488 64.212 28.3398 67.621 28.3398 71.828V107.701C28.3398 111.908 31.7488 115.317 35.9558 115.317H74.3958C78.6028 115.317 82.0118 111.908 82.0118 107.701V71.828H82.0128C82.0138 67.621 78.6048 64.212 74.3978 64.212ZM66.7798 100.086H43.5728V79.445H66.7798V100.086Z" fill="#7a7a7a"/>
<path d="M74.3978 256.855H35.9558C31.7488 256.855 28.3398 260.264 28.3398 264.471V300.344C28.3398 304.551 31.7488 307.96 35.9558 307.96H74.3958C78.6028 307.96 82.0118 304.551 82.0118 300.344V264.471C82.0138 260.264 78.6038 256.855 74.3978 256.855ZM66.7798 292.728H43.5728V272.087H66.7798V292.728Z" fill="#7a7a7a"/>
<path d="M476.045 192.641H435.746C431.539 192.641 428.13 196.05 428.13 200.257V236.13C428.13 240.337 431.539 243.746 435.746 243.746H476.045C480.252 243.746 483.661 240.337 483.661 236.13V200.257C483.661 196.05 480.252 192.641 476.045 192.641ZM468.429 228.514H443.363V207.873H468.429V228.514Z" fill="#7a7a7a"/>
<path d="M476.045 128.426H435.746C431.539 128.426 428.13 131.835 428.13 136.042V171.916C428.13 176.123 431.539 179.532 435.746 179.532H476.045C480.252 179.532 483.661 176.123 483.661 171.916V136.042C483.661 131.835 480.252 128.426 476.045 128.426ZM468.429 164.3H443.363V143.658H468.429V164.3Z" fill="#7a7a7a"/>
</svg>
